<svg height="1em" viewBox="0 0 64 64" width="1em" xmlns="http://www.w3.org/2000/svg"><path d="m11.140361 15.599726c-.335891-1.955394.599813-3.598881 1.559516-5.134398 3.050678-5.0269749 8.043342-8.5695959 13.795751-9.78899089 2.401984-.600538 4.886182-.803166 7.353737-.599821 4.227789.311776 8.304733 1.70378899 11.840354 4.04275899 3.716744 2.558984 6.42366 6.3350929 7.653641 10.6767209.302189 1.044653.451706 2.127529.443864 3.21499 0 8.397427.07198 16.914804-.08395 25.384175.015 3.450004-.764787 6.857113-2.2793 9.95695-2.06591 4.073296-5.552657 7.248494-9.800982 8.925233-4.318669 1.799458-8.757302 1.919441-13.195935 1.559523-3.553369-.294431-6.976451-1.473924-9.956932-3.43092-4.197746-2.508749-7.109589-6.706008-7.98954-11.51647-.502043-2.829958-.337757-5.737973.47985-8.493376.969673-3.031042 3.076718-5.568095 5.878191-7.077807 2.794364-1.541885 5.796278-2.673163 8.913252-3.358978 4.222699-1.199638 8.481391-2.207314 12.716086-3.298986 1.19963-.299773 2.31529-.599817 3.478927-.911729.535164-.172208 1.056499-.384754 1.559523-.635806 1.12001-.533726 1.779478-1.717881 1.643494-2.951086.09342-2.401211-.315143-4.795499-1.199631-7.029833-1.071612-2.441933-2.976492-4.423345-5.374344-5.5902607-2.342948-1.2595119-5.004678-1.80187-7.653645-1.5595229-4.825491.2405284-9.078299 3.2455346-10.916638 7.7136146-.26146.63618-.595569 1.240007-.995692 1.799454-.609284.880899-1.661933 1.344625-2.723156 1.199638-2.183331-.240053-4.174718-.815751-5.158414-3.071072zm33.985531 16.914805-1.643494.503836-7.581666 2.07538c-2.135342.575815-4.282679 1.199605-6.418021 1.727446-2.135342.527842-3.958784 1.079688-5.854197 1.775453-1.806832.636561-3.278462 1.978346-4.078745 3.718859-.472274 1.242013-.652866 2.575931-.527837 3.898808.004 2.864838 1.399993 5.549048 3.742849 7.19779 2.529428 1.79129 5.538474 2.781768 8.637338 2.84312 1.892647.02415 3.77664-.259447 5.578283-.839753 2.132759-.566868 4.01296-1.834412 5.338355-3.598876 1.478095-2.040485 2.313508-4.475713 2.399261-6.993848.239943-3.382979.263912-6.777913.359896-10.172877.07198-.63581.05998-1.343593.05998-2.123354z" fill="#317fe3" stroke-width="1.199631"/></svg>