<svg height="1em" viewBox="-21.52 -16.52 64 64" width="1em" xmlns="http://www.w3.org/2000/svg"><linearGradient id="a" gradientTransform="matrix(1 0 0 -1 0 1630)" gradientUnits="userSpaceOnUse" x1="303" x2="1540.699" y1="1105.209" y2="1105.209"><stop offset="0" stop-color="#2a59a2"/><stop offset="1" stop-color="#2a59a2"/></linearGradient><linearGradient id="b" gradientTransform="matrix(1 0 0 -1 0 1630)" gradientUnits="userSpaceOnUse" x1="253.024" x2="1562.142" y1="1316.528" y2="1316.528"><stop offset="0" stop-color="#91d3f2"/><stop offset=".266" stop-color="#6fb2de"/><stop offset=".521" stop-color="#5598ce"/><stop offset=".673" stop-color="#4b8fc8"/></linearGradient><linearGradient id="c" gradientTransform="matrix(1 0 0 -1 0 1630)" gradientUnits="userSpaceOnUse" x1="303.10001" x2="1549.834" y1="817.07397" y2="817.07397"><stop offset="0" stop-color="#2c9ec7"/><stop offset=".404" stop-color="#2c63a5"/><stop offset="1" stop-color="#395da1"/></linearGradient><linearGradient id="d" gradientTransform="matrix(1 0 0 -1 0 1630)" gradientUnits="userSpaceOnUse" x1="303.07901" x2="1549.813" y1="1078.65" y2="1078.65"><stop offset="0" stop-color="#4faac4"/><stop offset=".002" stop-color="#2f75b1"/><stop offset="1" stop-color="#356eac"/></linearGradient><linearGradient id="e" gradientTransform="matrix(1 0 0 -1 0 1630)" gradientUnits="userSpaceOnUse" x1="750" x2="1556.984" y1="1271.65" y2="1271.65"><stop offset="0" stop-color="#4faac4"/><stop offset=".002" stop-color="#2f81b6"/><stop offset="1" stop-color="#3b5ea9"/></linearGradient><linearGradient id="f" gradientTransform="matrix(1 0 0 -1 0 1630)" gradientUnits="userSpaceOnUse" x1="749.96802" x2="1556.952" y1="962.70001" y2="962.70001"><stop offset="0" stop-color="#4faac4"/><stop offset=".002" stop-color="#1e3773"/><stop offset="1" stop-color="#203370"/></linearGradient><linearGradient id="g" gradientTransform="matrix(1 0 0 -1 0 1630)" gradientUnits="userSpaceOnUse" x1="1272.251" x2="1272.251" y1="895.29797" y2="1337.814"><stop offset="0" stop-color="#4faac4"/><stop offset=".002" stop-color="#2c5a9a"/><stop offset="1" stop-color="#374580"/></linearGradient><linearGradient id="h" gradientTransform="matrix(1 0 0 -1 0 1630)" gradientUnits="userSpaceOnUse" x1="168.495" x2="1086.828" y1="949.09601" y2="949.09601"><stop offset=".112" stop-color="#38b1da"/><stop offset="1" stop-color="#326fb5"/></linearGradient><g transform="matrix(.05170874 0 0 .05170874 -37.187748 -11.655984)"><path d="m1534.1 450.3h-22.1c-40.2-.5-117.3 3.8-187.2 64.2-166.9 144.5-205 357.2-490.6 472-237.9 95.6-531.2 5.1-531.2 5.1s261.7-18.2 296.4-217.9c27.1-156.2-115-267.1-204.2-408-90.7-143.5-114-262.7-70.3-314.2 123.9-146.3 465.1 249.2 634.5 302.5 165.8 52.1 277.7-68.9 415-51.1 43.8 5.6 65.2 24.5 79.4 48.6 4.8 8.1 16.6 35.7 27.1 45.9 10.3 10 24 17.4 36.8 24.9 16.3 9.6 32.4 28 16.4 28z" fill="url(#a)"/><path d="m750 221.5c-41-31.2-83.3-63.9-124.9-93.7-9.4-6.7-18.8-13.3-28.1-19.7-111.5-76.3-214.9-124.1-272.1-56.6-43.7 51.5-20.4 170.7 70.4 314.2.9 1.5 1.9 2.9 2.8 4.4 47.3 73.2 184.5 244.7 509.7 237.4 21.4-22.7 53.9-65.6 95.9-112.3-68.1-110.1-170.7-206.1-253.7-273.7z" fill="url(#b)"/><path d="m1077.8 738.9c1.3-48.8-7.6-96.9-24.5-143.4-42.7 6.4-90.8 10.8-145.5 12-39.8 42.3-130.7 155.3-281.3 257.1-200.5 135.6-323.4 127-323.4 127s293.4 90.5 531.2-5.1c85.3-34.3 148.6-77.3 199.8-124.7 8.4-8 41.9-49.8 43.7-122.9z" fill="url(#c)"/><path d="m1003.8 495.2c-42 46.6-74.6 89.6-95.9 112.3 54.8-1.2 102.9-5.6 145.5-12-5-13.9-10.8-27.6-17.2-41.1-9.6-20.1-20.5-39.9-32.4-59.2z" fill="url(#d)"/><path d="m1247.6 318.3c-87.8 26.6-175.5 71.1-288.2 35.7-55.8-17.5-130.3-72.2-209.4-132.5 83 67.6 185.6 163.5 253.8 273.7 62.2-68.9 145.2-145.9 243.8-176.9z" fill="url(#e)"/><path d="m1053.4 595.5c16.9 46.5 25.8 94.6 24.5 143.4-1.9 73-35.4 114.8-43.8 122.9 120.1-111.1 173.8-246 290.8-347.3 21.8-18.8 44.2-32.2 66.1-41.7h-.1c-76.7 32.2-159.9 95.9-337.5 122.7z" fill="url(#f)"/><path d="m1534.1 450.3c16 0-.1-18.4-16.3-27.9-12.8-7.6-26.5-15-36.8-24.9-10.6-10.2-22.4-37.9-27.1-45.9-14.3-24.2-35.6-43-79.4-48.6-44-5.7-85.4 2.9-126.8 15.4-98.6 31-181.7 108-243.9 176.9 11.9 19.3 22.9 39 32.4 59.1 6.4 13.6 12.2 27.3 17.2 41.1 177.7-26.8 260.8-90.5 337.5-122.7h.1c48.3-21 93.5-22.9 121.1-22.5z" fill="url(#g)"/><path d="m626.5 864.6c150.6-101.8 241.5-214.8 281.3-257.1-325.2 7.3-462.4-164.2-509.7-237.4 89.3 138.9 228.2 249.1 201.4 403.6-34.7 199.7-296.4 217.9-296.4 217.9s122.9 8.6 323.4-127z" fill="url(#h)"/><ellipse cx="1365.4" cy="377.39999" fill="#fff" rx="26" ry="25.799999"/></g></svg>